# Blender 3.5.1
# www.blender.org
mtllib carne.mtl
o MEAT_FR
v -1.500000 -0.100098 -0.000000
v -1.298950 -0.100098 0.750000
v -1.298950 0.100098 0.750000
v -1.500000 0.100098 0.000000
v -1.298950 -0.100098 0.750000
v -0.750000 -0.100098 1.298950
v -0.750000 0.100098 1.298950
v -1.298950 0.100098 0.750000
v -0.750000 -0.100098 1.298950
v 0.000000 -0.100098 1.500000
v 0.000000 0.100098 1.500000
v -0.750000 0.100098 1.298950
v 0.000000 -0.100098 1.500000
v 0.750000 -0.100098 1.298950
v 0.750000 0.100098 1.298950
v 0.000000 0.100098 1.500000
v 0.750000 -0.100098 1.298950
v 1.298950 -0.100098 0.750000
v 1.298950 0.100098 0.750000
v 0.750000 0.100098 1.298950
v 1.298950 -0.100098 0.750000
v 1.500000 -0.100098 -0.000000
v 1.500000 0.100098 0.000000
v 1.298950 0.100098 0.750000
v 1.500000 -0.100098 -0.000000
v 1.298950 -0.100098 -0.750000
v 1.298950 0.100098 -0.750000
v 1.500000 0.100098 0.000000
v 1.298950 -0.100098 -0.750000
v 0.750000 -0.100098 -1.298950
v 0.750000 0.100098 -1.298950
v 1.298950 0.100098 -0.750000
v 0.750000 -0.100098 -1.298950
v 0.000000 -0.100098 -1.500000
v 0.000000 0.100098 -1.500000
v 0.750000 0.100098 -1.298950
v 0.000000 -0.100098 -1.500000
v -0.750000 -0.100098 -1.298950
v -0.750000 0.100098 -1.298950
v 0.000000 0.100098 -1.500000
v -0.750000 -0.100098 -1.298950
v -1.298950 -0.100098 -0.750000
v -1.298950 0.100098 -0.750000
v -0.750000 0.100098 -1.298950
v -1.298950 -0.100098 -0.750000
v -1.500000 -0.100098 -0.000000
v -1.500000 0.100098 0.000000
v -1.298950 0.100098 -0.750000
v -1.298950 -0.100098 0.750000
v -1.500000 -0.100098 -0.000000
v 0.000000 -0.100098 -0.000000
v -1.500000 0.100098 0.000000
v -1.298950 0.100098 0.750000
v 0.000000 0.100098 0.000000
v -0.750000 -0.100098 1.298950
v -1.298950 -0.100098 0.750000
v 0.000000 -0.100098 -0.000000
v -1.298950 0.100098 0.750000
v -0.750000 0.100098 1.298950
v 0.000000 0.100098 0.000000
v 0.000000 -0.100098 1.500000
v -0.750000 -0.100098 1.298950
v 0.000000 -0.100098 -0.000000
v -0.750000 0.100098 1.298950
v 0.000000 0.100098 1.500000
v 0.000000 0.100098 0.000000
v 0.750000 -0.100098 1.298950
v 0.000000 -0.100098 1.500000
v 0.000000 -0.100098 -0.000000
v 0.000000 0.100098 1.500000
v 0.750000 0.100098 1.298950
v 0.000000 0.100098 0.000000
v 1.298950 -0.100098 0.750000
v 0.750000 -0.100098 1.298950
v 0.000000 -0.100098 -0.000000
v 0.750000 0.100098 1.298950
v 1.298950 0.100098 0.750000
v 0.000000 0.100098 0.000000
v 1.500000 -0.100098 -0.000000
v 1.298950 -0.100098 0.750000
v 0.000000 -0.100098 -0.000000
v 1.298950 0.100098 0.750000
v 1.500000 0.100098 0.000000
v 0.000000 0.100098 0.000000
v 1.298950 -0.100098 -0.750000
v 1.500000 -0.100098 -0.000000
v 0.000000 -0.100098 -0.000000
v 1.500000 0.100098 0.000000
v 1.298950 0.100098 -0.750000
v 0.000000 0.100098 0.000000
v 0.750000 -0.100098 -1.298950
v 1.298950 -0.100098 -0.750000
v 0.000000 -0.100098 -0.000000
v 1.298950 0.100098 -0.750000
v 0.750000 0.100098 -1.298950
v 0.000000 0.100098 0.000000
v 0.000000 -0.100098 -1.500000
v 0.750000 -0.100098 -1.298950
v 0.000000 -0.100098 -0.000000
v 0.750000 0.100098 -1.298950
v 0.000000 0.100098 -1.500000
v 0.000000 0.100098 0.000000
v -0.750000 -0.100098 -1.298950
v 0.000000 -0.100098 -1.500000
v 0.000000 -0.100098 -0.000000
v 0.000000 0.100098 -1.500000
v -0.750000 0.100098 -1.298950
v 0.000000 0.100098 0.000000
v -1.298950 -0.100098 -0.750000
v -0.750000 -0.100098 -1.298950
v 0.000000 -0.100098 -0.000000
v -0.750000 0.100098 -1.298950
v -1.298950 0.100098 -0.750000
v 0.000000 0.100098 0.000000
v -1.500000 -0.100098 -0.000000
v -1.298950 -0.100098 -0.750000
v 0.000000 -0.100098 -0.000000
v -1.298950 0.100098 -0.750000
v -1.500000 0.100098 0.000000
v 0.000000 0.100098 0.000000
vn -1.0000 -0.0000 -0.0000
vn -0.8658 -0.0000 0.5003
vn -0.5003 -0.0000 0.8658
vn -0.0000 -0.0000 1.0000
vn 0.5003 -0.0000 0.8658
vn 0.8658 -0.0000 0.5003
vn 1.0000 -0.0000 -0.0000
vn 0.8658 -0.0000 -0.5003
vn 0.5003 -0.0000 -0.8658
vn -0.0000 -0.0000 -1.0000
vn -0.5003 -0.0000 -0.8658
vn -0.8658 -0.0000 -0.5003
vn -0.0000 -1.0000 -0.0000
vn -0.0000 1.0000 -0.0000
vt 0.499023 0.093262
vt 0.658203 0.093262
vt 0.658203 0.140625
vt 0.499023 0.140625
vt 0.658203 0.093262
vt 0.817383 0.093262
vt 0.817383 0.140625
vt 0.658203 0.140625
vt 0.817383 0.093262
vt 0.976562 0.093262
vt 0.976562 0.140625
vt 0.817383 0.140625
vt 0.022949 0.010742
vt 0.182129 0.010742
vt 0.182129 0.058105
vt 0.022949 0.058105
vt 0.182129 0.010742
vt 0.341309 0.010742
vt 0.341309 0.058105
vt 0.182129 0.058105
vt 0.341309 0.010742
vt 0.500488 0.010742
vt 0.500488 0.058105
vt 0.341309 0.058105
vt 0.500488 0.010742
vt 0.659668 0.010742
vt 0.659668 0.058105
vt 0.500488 0.058105
vt 0.659668 0.010742
vt 0.818848 0.010742
vt 0.818848 0.058105
vt 0.659668 0.058105
vt 0.818848 0.010742
vt 0.978027 0.010742
vt 0.978027 0.058105
vt 0.818848 0.058105
vt 0.021484 0.093262
vt 0.180664 0.093262
vt 0.180664 0.140625
vt 0.021484 0.140625
vt 0.180664 0.093262
vt 0.339844 0.093262
vt 0.339844 0.140625
vt 0.180664 0.140625
vt 0.339844 0.093262
vt 0.499023 0.093262
vt 0.499023 0.140625
vt 0.339844 0.140625
vt 0.136719 0.366211
vt 0.081543 0.573242
vt 0.495605 0.573242
vt 0.081543 0.573242
vt 0.136719 0.366211
vt 0.495605 0.573242
vt 0.288574 0.214355
vt 0.136719 0.366211
vt 0.495605 0.573242
vt 0.136719 0.366211
vt 0.288574 0.214355
vt 0.495605 0.573242
vt 0.495605 0.159180
vt 0.288574 0.214355
vt 0.495605 0.573242
vt 0.288574 0.214355
vt 0.495605 0.159180
vt 0.495605 0.573242
vt 0.702637 0.214355
vt 0.495605 0.159180
vt 0.495605 0.573242
vt 0.495605 0.159180
vt 0.702637 0.214355
vt 0.495605 0.573242
vt 0.854004 0.366211
vt 0.702637 0.214355
vt 0.495605 0.573242
vt 0.702637 0.214355
vt 0.854004 0.366211
vt 0.495605 0.573242
vt 0.909180 0.573242
vt 0.854004 0.366211
vt 0.495605 0.573242
vt 0.854004 0.366211
vt 0.909180 0.573242
vt 0.495605 0.573242
vt 0.854004 0.779785
vt 0.909180 0.573242
vt 0.495605 0.573242
vt 0.909180 0.573242
vt 0.854004 0.779785
vt 0.495605 0.573242
vt 0.702637 0.931641
vt 0.854004 0.779785
vt 0.495605 0.573242
vt 0.854004 0.779785
vt 0.702637 0.931641
vt 0.495605 0.573242
vt 0.495605 0.986816
vt 0.702637 0.931641
vt 0.495605 0.573242
vt 0.702637 0.931641
vt 0.495605 0.986816
vt 0.495605 0.573242
vt 0.288574 0.931641
vt 0.495605 0.986816
vt 0.495605 0.573242
vt 0.495605 0.986816
vt 0.288574 0.931641
vt 0.495605 0.573242
vt 0.136719 0.779785
vt 0.288574 0.931641
vt 0.495605 0.573242
vt 0.288574 0.931641
vt 0.136719 0.779785
vt 0.495605 0.573242
vt 0.081543 0.573242
vt 0.136719 0.779785
vt 0.495605 0.573242
vt 0.136719 0.779785
vt 0.081543 0.573242
vt 0.495605 0.573242
s 1
usemtl meat_fr_main_mat
f 1/1/1 2/2/2 3/3/2 4/4/1
f 5/5/2 6/6/3 7/7/3 8/8/2
f 9/9/3 10/10/4 11/11/4 12/12/3
f 13/13/4 14/14/5 15/15/5 16/16/4
f 17/17/5 18/18/6 19/19/6 20/20/5
f 21/21/6 22/22/7 23/23/7 24/24/6
f 25/25/7 26/26/8 27/27/8 28/28/7
f 29/29/8 30/30/9 31/31/9 32/32/8
f 33/33/9 34/34/10 35/35/10 36/36/9
f 37/37/10 38/38/11 39/39/11 40/40/10
f 41/41/11 42/42/12 43/43/12 44/44/11
f 45/45/12 46/46/1 47/47/1 48/48/12
s 0
f 49/49/13 50/50/13 51/51/13
f 52/52/14 53/53/14 54/54/14
f 55/55/13 56/56/13 57/57/13
f 58/58/14 59/59/14 60/60/14
f 61/61/13 62/62/13 63/63/13
f 64/64/14 65/65/14 66/66/14
f 67/67/13 68/68/13 69/69/13
f 70/70/14 71/71/14 72/72/14
f 73/73/13 74/74/13 75/75/13
f 76/76/14 77/77/14 78/78/14
f 79/79/13 80/80/13 81/81/13
f 82/82/14 83/83/14 84/84/14
f 85/85/13 86/86/13 87/87/13
f 88/88/14 89/89/14 90/90/14
f 91/91/13 92/92/13 93/93/13
f 94/94/14 95/95/14 96/96/14
f 97/97/13 98/98/13 99/99/13
f 100/100/14 101/101/14 102/102/14
f 103/103/13 104/104/13 105/105/13
f 106/106/14 107/107/14 108/108/14
f 109/109/13 110/110/13 111/111/13
f 112/112/14 113/113/14 114/114/14
f 115/115/13 116/116/13 117/117/13
f 118/118/14 119/119/14 120/120/14
