# Blender 3.5.1
# www.blender.org
mtllib sarten.mtl
o DolCook.001
v 3.846500 0.305344 -1.570142
v 4.237597 -0.416138 -1.654630
v 4.558925 0.316359 -1.856679
v 3.643715 -0.434607 -1.266857
v 3.298004 0.277147 -1.033364
v 3.243580 -0.467237 -0.681849
v 2.996938 0.236067 -0.328064
v 3.098108 -0.509058 0.011328
v 2.989140 0.188354 0.438382
v 3.229448 -0.553704 0.707146
v 3.275794 0.141272 1.149288
v 3.617601 -0.594380 1.299672
v 3.813263 0.101991 1.696427
v 4.203477 -0.624891 1.698702
v 4.519721 0.076491 1.996502
v 4.897881 -0.640594 1.843483
v 5.287614 0.068652 2.003827
v 5.595099 -0.639097 1.711976
v 6.000041 0.079670 1.717288
v 6.188980 -0.620629 1.324203
v 6.548537 0.107865 1.180508
v 6.589115 -0.588000 0.739195
v 6.849602 0.148945 0.475209
v 6.734586 -0.546179 0.046018
v 6.857401 0.196658 -0.291237
v 6.603248 -0.501531 -0.649801
v 6.570745 0.243740 -1.002143
v 6.215094 -0.460857 -1.242328
v 6.033277 0.283022 -1.549283
v 5.629218 -0.430344 -1.641354
v 5.326818 0.308522 -1.849355
v 4.934813 -0.414642 -1.786136
v 3.444383 -0.614937 0.986937
v 3.924461 -0.650025 1.475656
v 4.555487 -0.672803 1.743688
v 5.241389 -0.679804 1.750232
v 5.877745 -0.669963 1.494289
v 6.367678 -0.644778 1.014824
v 6.636596 -0.608082 0.384833
v 6.643561 -0.565465 -0.299776
v 6.387514 -0.523410 -0.934774
v 5.907434 -0.488324 -1.423491
v 5.276408 -0.465546 -1.691525
v 4.590506 -0.458546 -1.698069
v 3.954150 -0.468387 -1.442125
v 3.464220 -0.493571 -0.962662
v 3.195301 -0.530265 -0.332671
v 3.188334 -0.572885 0.351938
v 4.551490 0.318887 -1.896073
v 4.223381 -0.451765 -1.691346
v 3.824525 0.307646 -1.603689
v 4.934825 -0.450239 -1.825537
v 5.335055 0.310889 -1.888600
v 5.643401 -0.466260 -1.677801
v 6.055929 0.284868 -1.582401
v 6.241234 -0.497396 -1.270629
v 6.604366 0.244785 -1.024096
v 6.637310 -0.538900 -0.666010
v 6.896873 0.196743 -0.298682
v 6.771328 -0.584457 0.044009
v 6.888915 0.148057 0.483404
v 6.622890 -0.627133 0.751332
v 6.581705 0.106137 1.203101
v 6.214588 -0.660428 1.348277
v 6.022015 0.077367 1.750832
v 5.608585 -0.679274 1.743966
v 5.295049 0.066126 2.043219
v 4.897141 -0.680801 1.878157
v 4.511484 0.074123 2.035744
v 4.188564 -0.664778 1.730420
v 3.790610 0.100144 1.729547
v 3.590731 -0.633644 1.323249
v 3.242173 0.140227 1.171241
v 3.194656 -0.592138 0.718630
v 2.949668 0.188269 0.445828
v 3.060637 -0.546580 0.008610
v 2.957625 0.236956 -0.336260
v 3.209077 -0.503907 -0.698712
v 3.264834 0.278875 -1.055954
v 3.617379 -0.470611 -1.295659
v 3.413965 -0.655960 1.004047
v 3.152692 -0.613048 0.356090
v 3.159800 -0.569560 -0.342490
v 3.434208 -0.532116 -0.985339
v 3.934137 -0.506417 -1.474589
v 4.583480 -0.496376 -1.735755
v 5.283378 -0.503520 -1.729079
v 5.927280 -0.526763 -1.455575
v 6.417161 -0.562566 -0.956883
v 6.678433 -0.605477 -0.308924
v 6.671326 -0.648966 0.389654
v 6.396920 -0.686410 1.032503
v 5.896990 -0.712109 1.521752
v 5.247645 -0.722150 1.782919
v 4.547746 -0.715004 1.776243
v 3.903843 -0.691762 1.502739
v 3.824525 0.307646 -1.603689
v 4.558925 0.316359 -1.856679
v 4.551490 0.318887 -1.896073
v 3.846500 0.305344 -1.570142
v 3.264834 0.278875 -1.055954
v 3.298004 0.277147 -1.033364
v 2.957625 0.236956 -0.336260
v 2.996938 0.236067 -0.328064
v 2.949668 0.188269 0.445828
v 2.989140 0.188354 0.438382
v 3.242173 0.140227 1.171241
v 3.275794 0.141272 1.149288
v 3.790610 0.100144 1.729547
v 3.813263 0.101991 1.696427
v 4.511484 0.074123 2.035744
v 4.519721 0.076491 1.996502
v 5.295049 0.066126 2.043219
v 5.287614 0.068652 2.003827
v 6.022015 0.077367 1.750832
v 6.000041 0.079670 1.717288
v 6.581705 0.106137 1.203101
v 6.548537 0.107865 1.180508
v 6.888915 0.148057 0.483404
v 6.849602 0.148945 0.475209
v 6.896873 0.196743 -0.298682
v 6.857401 0.196658 -0.291237
v 6.604366 0.244785 -1.024096
v 6.570745 0.243740 -1.002143
v 6.055929 0.284868 -1.582401
v 6.033277 0.283022 -1.549283
v 5.335055 0.310889 -1.888600
v 5.326818 0.308522 -1.849355
v 2.308007 -0.156501 0.127690
v 3.028496 -0.162067 0.134674
v 3.009963 -0.064244 0.183014
v 3.037032 -0.197322 0.030112
v 2.308639 -0.192421 0.023007
v 3.030572 -0.149360 -0.069422
v 2.310084 -0.143796 -0.076407
v 2.311495 -0.039116 -0.112314
v 2.985832 0.086802 0.047279
v 2.311413 0.096217 0.041003
v 2.309968 0.047595 0.140416
v 2.312045 0.060301 -0.063682
v 2.994368 0.051546 -0.057283
v 3.012900 -0.046275 -0.105623
v 2.308558 -0.057084 0.176324
v 2.992291 0.038840 0.146813
v 4.915949 -0.569174 0.026082
v 4.915563 -0.609261 0.023583
v 2.223649 -0.265157 0.017613
v 2.337240 -0.127983 -0.057920
v 2.336038 -0.168455 0.024777
v 2.225831 -0.191657 -0.132404
v 2.062062 -0.319938 0.012559
v 2.064807 -0.227380 -0.176274
v 0.276472 -0.329901 -0.006229
v 0.279501 -0.228103 -0.214771
v 0.118431 -0.188066 -0.172813
v 0.282459 -0.008538 -0.289897
v 0.120824 -0.010496 -0.233603
v 0.121760 0.158165 -0.151225
v 0.008801 0.078072 -0.080588
v 0.120686 0.218970 0.026353
v 0.008202 0.112064 0.018554
v 0.006833 0.066040 0.112705
v -0.032887 -0.024184 0.009653
v 0.005496 -0.033098 0.146687
v 0.004975 -0.127254 0.100655
v 0.115845 -0.040961 0.255794
v 0.114909 -0.209620 0.173419
v 0.276303 -0.046206 0.315163
v 0.275144 -0.254755 0.213342
v 2.060862 -0.251517 0.211430
v 2.222696 -0.210829 0.175600
v 2.335513 -0.138552 0.111861
v 0.118237 0.136612 0.195006
v 0.279260 0.173360 0.240037
v 2.061907 -0.062674 0.304005
v 2.064590 0.136189 0.235603
v 2.225658 0.097174 0.194804
v 2.067337 0.228745 0.046770
v 2.227839 0.170675 0.044787
v 2.228792 0.116348 -0.113200
v 2.338872 0.041796 -0.047333
v 2.227963 -0.033674 -0.186715
v 2.338413 -0.040902 -0.087814
v 0.008278 -0.016083 -0.126622
v 0.006942 -0.115221 -0.092639
v 0.115982 -0.270427 -0.004160
v 2.067490 -0.028518 -0.244678
v 2.068536 0.160324 -0.152102
v 0.283617 0.200012 -0.188077
v 0.282289 0.275158 0.031495
v 2.338346 0.071699 0.039751
v 2.337145 0.031227 0.122445
v 2.223527 -0.060806 0.249117
v 0.005574 -0.161245 0.001512
v 2.335971 -0.055852 0.152340
vn 0.5536 -0.8315 -0.0461
vn 0.6604 -0.5038 -0.5568
vn 0.6532 -0.7561 -0.0404
vn 0.4502 -0.5956 -0.6653
vn 0.1888 -0.9820 0.0003
vn 0.1430 -0.7166 -0.6827
vn -0.1989 -0.9723 -0.1225
vn -0.1267 -0.5902 -0.7973
vn -0.4696 -0.5793 -0.6662
vn -0.1796 0.1225 -0.9761
vn -0.5831 0.0561 -0.8105
vn -0.4576 0.6665 -0.5885
vn -0.8028 0.4468 -0.3948
vn -0.5836 0.8109 0.0445
vn -0.8544 0.5190 0.0236
vn -0.8112 0.3954 0.4309
vn -0.9999 0.0102 -0.0095
vn -0.8645 -0.0230 0.5020
vn -0.8191 -0.4303 0.3794
vn -0.5995 -0.0441 0.7992
vn -0.4823 -0.6569 0.5796
vn -0.2006 -0.1187 0.9725
vn -0.1420 -0.7947 0.5902
vn 0.1300 -0.6855 0.7164
vn 0.4373 -0.6741 0.5953
vn 0.6496 -0.5698 0.5033
vn -0.4703 0.5889 0.6572
vn -0.1298 0.5928 0.7948
vn 0.1894 -0.0035 0.9819
vn 0.1446 0.7136 0.6854
vn 0.4495 0.5864 0.6738
vn 0.2088 0.9780 0.0034
vn 0.5694 0.8201 0.0569
vn 0.4623 0.6649 -0.5867
vn 0.6706 0.5563 -0.4907
vn 0.5699 0.0457 -0.8204
vn 0.6680 0.0399 -0.7431
vn -0.8542 0.0405 -0.5184
vn -0.8107 -0.3789 -0.4463
vn -0.5990 -0.7988 -0.0558
vn 0.2081 -0.0006 -0.9781
vn 0.1576 0.6825 -0.7137
vn -0.1145 0.7973 -0.5926
vn -0.1813 0.9762 0.1189
vn 0.6676 0.7427 0.0530
vn 0.6598 0.4903 0.5694
vn 0.5531 -0.0571 0.8312
vn -0.8643 -0.5015 -0.0400
vn 0.6527 -0.0534 0.7557
vn 0.5392 0.1307 0.8320
vn 0.3350 0.4093 0.8487
vn 0.1836 0.1253 0.9750
vn 0.6242 0.4183 0.6598
vn 0.8129 0.1449 0.5641
vn 0.8191 0.4342 0.3749
vn 0.9632 0.1654 0.2121
vn 0.8900 0.4545 0.0373
vn 0.9670 0.1892 -0.1704
vn 0.8260 0.4763 -0.3015
vn 0.8240 0.2127 -0.5252
vn 0.6370 0.4961 -0.5901
vn 0.5558 0.2322 -0.7982
vn 0.3516 0.5109 -0.7844
vn 0.2032 0.2449 -0.9480
vn 0.0134 0.5186 -0.8549
vn -0.1800 0.2489 -0.9517
vn -0.3261 0.5178 -0.7909
vn -0.5356 0.2434 -0.8086
vn -0.6153 0.5089 -0.6020
vn -0.8093 0.2293 -0.5408
vn -0.8102 0.4930 -0.3171
vn -0.9596 0.2087 -0.1888
vn -0.8810 0.4726 0.0205
vn -0.9635 0.1849 0.1937
vn -0.8171 0.4509 0.3593
vn -0.8204 0.1615 0.5485
vn -0.6280 0.4310 0.6479
vn -0.5522 0.1420 0.8216
vn -0.3427 0.4162 0.8422
vn -0.1996 0.1291 0.9713
vn -0.0045 0.4085 0.9127
vn 0.3054 0.9425 -0.1354
vn 0.2087 0.9496 -0.2339
vn 0.0816 0.9542 -0.2878
vn -0.0566 0.9556 -0.2892
vn -0.1848 0.9536 -0.2376
vn -0.2835 0.9486 -0.1410
vn -0.3377 0.9412 -0.0141
vn -0.3391 0.9326 0.1239
vn -0.2875 0.9241 0.2518
vn -0.1908 0.9170 0.3502
vn -0.0636 0.9124 0.4042
vn 0.0746 0.9110 0.4056
vn 0.2027 0.9130 0.3540
vn 0.3015 0.9181 0.2574
vn 0.3556 0.9255 0.1305
vn 0.3570 0.9341 -0.0075
vn -0.1838 -0.1197 -0.9757
vn -0.3366 -0.4003 -0.8523
vn -0.5397 -0.1252 -0.8325
vn 0.0047 -0.3996 -0.9167
vn 0.1999 -0.1236 -0.9720
vn 0.3446 -0.4073 -0.8458
vn 0.5528 -0.1363 -0.8221
vn 0.6313 -0.4222 -0.6505
vn 0.8213 -0.1560 -0.5487
vn 0.8213 -0.4421 -0.3605
vn 0.9645 -0.1795 -0.1936
vn 0.8856 -0.4640 -0.0199
vn 0.9606 -0.2034 0.1893
vn 0.6762 -0.7120 0.1892
vn 0.8102 -0.2238 0.5417
vn 0.6188 -0.5022 0.6041
vn 0.5362 -0.2379 0.8099
vn 0.3279 -0.5094 0.7956
vn 0.1803 -0.2435 0.9530
vn -0.0134 -0.5102 0.8600
vn -0.2034 -0.2396 0.9493
vn -0.3533 -0.5025 0.7891
vn -0.5563 -0.2268 0.7994
vn -0.6401 -0.4876 0.5938
vn -0.8248 -0.2072 0.5261
vn -0.8301 -0.4676 0.3037
vn -0.9680 -0.1836 0.1709
vn -0.8944 -0.4458 -0.0369
vn -0.9641 -0.1598 -0.2120
vn -0.8232 -0.4253 -0.3762
vn -0.8137 -0.1393 -0.5643
vn -0.6273 -0.4093 -0.6625
vn -0.3110 -0.9402 0.1392
vn -0.3636 -0.9315 0.0089
vn -0.3622 -0.9228 -0.1317
vn -0.3070 -0.9152 -0.2610
vn -0.2064 -0.9101 -0.3594
vn -0.0758 -0.9080 -0.4120
vn 0.0650 -0.9095 -0.4106
vn 0.1946 -0.9141 -0.3557
vn 0.2932 -0.9214 -0.2553
vn 0.3458 -0.9300 -0.1249
vn 0.3443 -0.9387 0.0156
vn 0.0421 -0.9861 -0.1605
vn 0.1885 -0.9514 0.2434
vn 0.0579 -0.9535 0.2959
vn -0.0829 -0.9520 0.2946
vn -0.2125 -0.9473 0.2396
vn 0.0128 0.9980 0.0623
vn 0.0129 0.9980 0.0623
vn 0.0128 0.9980 0.0622
vn 0.0127 0.9980 0.0623
vn -0.0122 -0.7516 0.6595
vn -0.0122 -0.7517 0.6594
vn -0.0096 -0.0621 0.9980
vn -0.0066 -0.9981 -0.0619
vn 0.0021 -0.6641 -0.7477
vn 0.0108 0.0622 -0.9980
vn 0.0123 0.9980 0.0623
vn 0.0130 0.9980 0.0623
vn 0.0015 0.6641 0.7476
vn 0.0158 0.7517 -0.6593
vn 0.0107 0.0622 -0.9980
vn -0.0102 -0.0621 0.9980
vn 0.0015 0.6642 0.7476
vn -0.0067 -0.9980 -0.0622
vt -0.380426 0.611610
vt -0.471299 0.669667
vt -0.379271 0.725875
vt -0.486958 0.594898
vt -0.425219 0.506484
vt -0.530038 0.531812
vt -0.506832 0.426503
vt -0.593980 0.490015
vt -0.612841 0.383841
vt -0.669050 0.475869
vt -0.727107 0.384995
vt -0.743819 0.491528
vt -0.832232 0.429789
vt -0.806904 0.534609
vt -0.912214 0.511403
vt -0.848702 0.598551
vt -0.954876 0.617412
vt -0.862847 0.673621
vt -0.953721 0.731677
vt -0.847189 0.748390
vt -0.908928 0.836803
vt -0.804109 0.811475
vt -0.827314 0.916785
vt -0.740166 0.853272
vt -0.721306 0.959446
vt -0.665096 0.867417
vt -0.607040 0.958292
vt -0.590327 0.851759
vt -0.501914 0.913498
vt -0.527243 0.808679
vt -0.421933 0.831885
vt -0.485445 0.744737
vt -0.705874 0.486375
vt -0.773819 0.515326
vt -0.825514 0.568076
vt -0.853087 0.636593
vt -0.852342 0.710445
vt -0.823390 0.778391
vt -0.770642 0.830085
vt -0.702125 0.857658
vt -0.628272 0.856912
vt -0.560327 0.827961
vt -0.508632 0.775212
vt -0.481059 0.706695
vt -0.481805 0.632842
vt -0.510756 0.564897
vt -0.563505 0.513203
vt -0.632022 0.485630
vt -0.188178 0.437699
vt -0.170821 0.367364
vt -0.108813 0.404825
vt -0.231130 0.379360
vt -0.274082 0.437699
vt -0.291439 0.367364
vt -0.353447 0.404825
vt -0.342567 0.333202
vt -0.414191 0.344082
vt -0.376729 0.282074
vt -0.447065 0.264717
vt -0.388726 0.221765
vt -0.447065 0.178813
vt -0.376729 0.161456
vt -0.414191 0.099447
vt -0.342567 0.110328
vt -0.353447 0.038704
vt -0.291439 0.076165
vt -0.274082 0.005830
vt -0.231130 0.064169
vt -0.188178 0.005830
vt -0.170821 0.076165
vt -0.108813 0.038704
vt -0.119693 0.110328
vt -0.048069 0.099448
vt -0.085530 0.161456
vt -0.015195 0.178813
vt -0.073534 0.221765
vt -0.015195 0.264717
vt -0.085530 0.282074
vt -0.048070 0.344082
vt -0.119693 0.333202
vt -0.104442 0.137115
vt -0.081691 0.192040
vt -0.081691 0.251490
vt -0.104442 0.306415
vt -0.146479 0.348453
vt -0.201405 0.371204
vt -0.260855 0.371204
vt -0.315780 0.348453
vt -0.357818 0.306415
vt -0.380569 0.251490
vt -0.380569 0.192040
vt -0.357818 0.137115
vt -0.315780 0.095077
vt -0.260855 0.072326
vt -0.201404 0.072326
vt -0.146479 0.095077
vt -0.362784 0.607916
vt -0.379271 0.725875
vt -0.361559 0.729213
vt -0.380426 0.611610
vt -0.410334 0.496320
vt -0.425219 0.506484
vt -0.496971 0.411416
vt -0.506832 0.426503
vt -0.609504 0.366129
vt -0.612841 0.383841
vt -0.730802 0.367354
vt -0.727107 0.384995
vt -0.842396 0.414905
vt -0.832232 0.429789
vt -0.927301 0.501541
vt -0.912214 0.511403
vt -0.972588 0.614074
vt -0.954876 0.617412
vt -0.971361 0.735372
vt -0.953721 0.731677
vt -0.923813 0.846968
vt -0.908928 0.836803
vt -0.837176 0.931872
vt -0.827314 0.916785
vt -0.724643 0.977159
vt -0.721306 0.959446
vt -0.603346 0.975934
vt -0.607040 0.958292
vt -0.491750 0.928382
vt -0.501914 0.913498
vt -0.406846 0.841747
vt -0.421933 0.831885
vt 1.000000 0.000000
vt 1.000000 0.000000
vt 1.000000 0.000000
vt 1.000000 0.000000
vt 1.000000 0.000000
vt 1.000000 0.000000
vt 1.000000 0.000000
vt 1.000000 0.000000
vt 1.000000 0.000000
vt 1.000000 0.000000
vt 1.000000 0.000000
vt 1.000000 0.000000
vt 1.000000 0.000000
vt 1.000000 0.000000
vt 1.000000 0.000000
vt 1.000000 0.000000
vt -0.667073 0.671644
vt -0.231130 0.221765
vt 1.500000 0.952977
vt 1.640300 1.000000
vt 1.500000 1.000000
vt 1.728777 0.952977
vt 1.500000 0.885028
vt 1.769004 0.885028
vt 1.500000 0.131754
vt 1.769019 0.131754
vt 1.729327 0.063805
vt 2.000000 0.131754
vt 1.851169 0.063805
vt 1.729327 0.063805
vt 1.641949 0.016782
vt 1.500000 0.063805
vt 1.500000 0.016782
vt 1.358051 0.016782
vt 1.500000 0.000000
vt 1.299290 0.016782
vt 1.358051 0.016782
vt 1.148831 0.063805
vt 1.270673 0.063805
vt 1.000000 0.131754
vt 1.230981 0.131754
vt 1.230995 0.885028
vt 1.271223 0.952977
vt 1.359700 1.000000
vt 1.270673 0.063805
vt 1.230981 0.131754
vt 0.999357 0.885028
vt 1.230995 0.885028
vt 1.271223 0.952977
vt 1.500000 0.885028
vt 1.500000 0.952977
vt 1.728777 0.952977
vt 1.640300 1.000000
vt 1.860157 0.952977
vt 1.698455 1.000000
vt 1.700709 0.016782
vt 1.641949 0.016782
vt 1.500000 0.063805
vt 2.000643 0.885028
vt 1.769004 0.885028
vt 1.769019 0.131754
vt 1.500000 0.131754
vt 1.500000 1.000000
vt 1.359700 1.000000
vt 1.139843 0.952977
vt 1.500000 0.016782
vt 1.301545 1.000000
s 1
usemtl mat20
f 147/147/1 148/148/2 149/149/3
f 147/147/1 150/150/4 148/148/2
f 151/151/5 150/150/4 147/147/1
f 151/151/5 152/152/6 150/150/4
f 153/153/7 152/152/6 151/151/5
f 153/153/7 154/154/8 152/152/6
f 155/155/9 154/154/8 153/153/7
f 155/155/9 156/156/10 154/154/8
f 157/157/11 156/156/10 155/155/9
f 157/157/11 158/158/12 156/156/10
f 159/159/13 158/158/12 157/157/11
f 159/159/13 160/160/14 158/158/12
f 161/161/15 160/160/14 159/159/13
f 161/161/15 162/162/16 160/160/14
f 163/163/17 162/162/16 161/161/15
f 163/163/17 164/164/18 162/162/16
f 165/165/19 164/164/18 163/163/17
f 165/165/19 166/166/20 164/164/18
f 167/167/21 166/166/20 165/165/19
f 167/167/21 168/168/22 166/166/20
f 169/169/23 168/168/22 167/167/21
f 169/169/23 170/170/24 168/168/22
f 151/151/5 170/170/24 169/169/23
f 151/151/5 171/171/25 170/170/24
f 147/147/1 171/171/25 151/151/5
f 147/147/1 172/172/26 171/171/25
f 149/149/3 172/172/26 147/147/1
f 166/166/20 162/162/16 164/164/18
f 166/166/20 173/173/27 162/162/16
f 168/168/22 173/173/27 166/166/20
f 168/168/22 174/174/28 173/173/27
f 175/175/29 174/174/28 168/168/22
f 175/175/29 176/176/30 174/174/28
f 177/177/31 176/176/30 175/175/29
f 177/177/31 178/178/32 176/176/30
f 179/179/33 178/178/32 177/177/31
f 179/179/33 180/180/34 178/178/32
f 181/181/35 180/180/34 179/179/33
f 181/181/35 182/182/36 180/180/34
f 183/183/37 182/182/36 181/181/35
f 183/183/37 148/148/2 182/182/36
f 159/159/13 163/163/17 161/161/15
f 159/159/13 184/184/38 163/163/17
f 157/157/11 184/184/38 159/159/13
f 157/157/11 185/185/39 184/184/38
f 155/155/9 185/185/39 157/157/11
f 155/155/9 186/186/40 185/185/39
f 153/153/7 186/186/40 155/155/9
f 153/153/7 167/167/21 186/186/40
f 156/156/10 187/187/41 154/154/8
f 156/156/10 188/188/42 187/187/41
f 189/189/43 188/188/42 156/156/10
f 189/189/43 178/178/32 188/188/42
f 190/190/44 178/178/32 189/189/43
f 190/190/44 176/176/30 178/178/32
f 174/174/28 176/176/30 190/190/44
f 179/179/33 191/191/45 181/181/35
f 179/179/33 192/192/46 191/191/45
f 177/177/31 192/192/46 179/179/33
f 177/177/31 193/193/47 192/192/46
f 175/175/29 193/193/47 177/177/31
f 175/175/29 171/171/25 193/193/47
f 185/185/39 163/163/17 184/184/38
f 185/185/39 194/194/48 163/163/17
f 186/186/40 194/194/48 185/185/39
f 186/186/40 165/165/19 194/194/48
f 167/167/21 165/165/19 186/186/40
f 150/150/4 182/182/36 148/148/2
f 150/150/4 187/187/41 182/182/36
f 152/152/6 187/187/41 150/150/4
f 152/152/6 154/154/8 187/187/41
f 190/190/44 173/173/27 174/174/28
f 190/190/44 160/160/14 173/173/27
f 158/158/12 160/160/14 190/190/44
f 180/180/34 188/188/42 178/178/32
f 180/180/34 187/187/41 188/188/42
f 182/182/36 187/187/41 180/180/34
f 169/169/23 153/153/7 151/151/5
f 169/169/23 167/167/21 153/153/7
f 170/170/24 175/175/29 168/168/22
f 170/170/24 171/171/25 175/175/29
f 172/172/26 193/193/47 171/171/25
f 172/172/26 195/195/49 193/193/47
f 189/189/43 158/158/12 190/190/44
f 189/189/43 156/156/10 158/158/12
f 162/162/16 173/173/27 160/160/14
f 193/193/47 195/195/49 192/192/46
f 194/194/48 165/165/19 163/163/17
usemtl mat19
f 1/1/50 2/2/51 3/3/52
f 1/1/50 4/4/53 2/2/51
f 5/5/54 4/4/53 1/1/50
f 5/5/54 6/6/55 4/4/53
f 7/7/56 6/6/55 5/5/54
f 7/7/56 8/8/57 6/6/55
f 9/9/58 8/8/57 7/7/56
f 9/9/58 10/10/59 8/8/57
f 11/11/60 10/10/59 9/9/58
f 11/11/60 12/12/61 10/10/59
f 13/13/62 12/12/61 11/11/60
f 13/13/62 14/14/63 12/12/61
f 15/15/64 14/14/63 13/13/62
f 15/15/64 16/16/65 14/14/63
f 17/17/66 16/16/65 15/15/64
f 17/17/66 18/18/67 16/16/65
f 19/19/68 18/18/67 17/17/66
f 19/19/68 20/20/69 18/18/67
f 21/21/70 20/20/69 19/19/68
f 21/21/70 22/22/71 20/20/69
f 23/23/72 22/22/71 21/21/70
f 23/23/72 24/24/73 22/22/71
f 25/25/74 24/24/73 23/23/72
f 25/25/74 26/26/75 24/24/73
f 27/27/76 26/26/75 25/25/74
f 27/27/76 28/28/77 26/26/75
f 29/29/78 28/28/77 27/27/76
f 29/29/78 30/30/79 28/28/77
f 31/31/80 30/30/79 29/29/78
f 31/31/80 32/32/81 30/30/79
f 3/3/52 32/32/81 31/31/80
f 3/3/52 2/2/51 32/32/81
f 12/12/61 33/33/82 10/10/59
f 12/12/61 34/34/83 33/33/82
f 14/14/63 34/34/83 12/12/61
f 14/14/63 35/35/84 34/34/83
f 16/16/65 35/35/84 14/14/63
f 16/16/65 36/36/85 35/35/84
f 18/18/67 36/36/85 16/16/65
f 18/18/67 37/37/86 36/36/85
f 20/20/69 37/37/86 18/18/67
f 20/20/69 38/38/87 37/37/86
f 22/22/71 38/38/87 20/20/69
f 22/22/71 39/39/88 38/38/87
f 24/24/73 39/39/88 22/22/71
f 24/24/73 40/40/89 39/39/88
f 26/26/75 40/40/89 24/24/73
f 26/26/75 41/41/90 40/40/89
f 28/28/77 41/41/90 26/26/75
f 28/28/77 42/42/91 41/41/90
f 30/30/79 42/42/91 28/28/77
f 30/30/79 43/43/92 42/42/91
f 32/32/81 43/43/92 30/30/79
f 32/32/81 44/44/93 43/43/92
f 2/2/51 44/44/93 32/32/81
f 2/2/51 45/45/94 44/44/93
f 4/4/53 45/45/94 2/2/51
f 4/4/53 46/46/95 45/45/94
f 6/6/55 46/46/95 4/4/53
f 6/6/55 47/47/96 46/46/95
f 8/8/57 47/47/96 6/6/55
f 8/8/57 48/48/97 47/47/96
f 10/10/59 48/48/97 8/8/57
f 10/10/59 33/33/82 48/48/97
f 49/49/98 50/50/99 51/51/100
f 49/49/98 52/52/101 50/50/99
f 53/53/102 52/52/101 49/49/98
f 53/53/102 54/54/103 52/52/101
f 55/55/104 54/54/103 53/53/102
f 55/55/104 56/56/105 54/54/103
f 57/57/106 56/56/105 55/55/104
f 57/57/106 58/58/107 56/56/105
f 59/59/108 58/58/107 57/57/106
f 59/59/108 60/60/109 58/58/107
f 61/61/110 60/60/109 59/59/108
f 61/61/110 62/62/111 60/60/109
f 63/63/112 62/62/111 61/61/110
f 63/63/112 64/64/113 62/62/111
f 65/65/114 64/64/113 63/63/112
f 65/65/114 66/66/115 64/64/113
f 67/67/116 66/66/115 65/65/114
f 67/67/116 68/68/117 66/66/115
f 69/69/118 68/68/117 67/67/116
f 69/69/118 70/70/119 68/68/117
f 71/71/120 70/70/119 69/69/118
f 71/71/120 72/72/121 70/70/119
f 73/73/122 72/72/121 71/71/120
f 73/73/122 74/74/123 72/72/121
f 75/75/124 74/74/123 73/73/122
f 75/75/124 76/76/125 74/74/123
f 77/77/126 76/76/125 75/75/124
f 77/77/126 78/78/127 76/76/125
f 79/79/128 78/78/127 77/77/126
f 79/79/128 80/80/129 78/78/127
f 51/51/100 80/80/129 79/79/128
f 51/51/100 50/50/99 80/80/129
f 74/74/123 81/81/130 72/72/121
f 74/74/123 82/82/131 81/81/130
f 76/76/125 82/82/131 74/74/123
f 76/76/125 83/83/132 82/82/131
f 78/78/127 83/83/132 76/76/125
f 78/78/127 84/84/133 83/83/132
f 80/80/129 84/84/133 78/78/127
f 80/80/129 85/85/134 84/84/133
f 50/50/99 85/85/134 80/80/129
f 50/50/99 86/86/135 85/85/134
f 52/52/101 86/86/135 50/50/99
f 52/52/101 87/87/136 86/86/135
f 54/54/103 87/87/136 52/52/101
f 54/54/103 88/88/137 87/87/136
f 56/56/105 88/88/137 54/54/103
f 56/56/105 89/89/138 88/88/137
f 58/58/107 89/89/138 56/56/105
f 58/58/107 90/90/139 89/89/138
f 60/60/109 90/90/139 58/58/107
f 60/60/109 91/91/140 90/90/139
f 62/62/111 91/91/140 60/60/109
f 62/62/111 92/92/141 91/91/140
f 64/64/113 93/93/142 92/92/141
f 66/66/115 93/93/142 64/64/113
f 66/66/115 94/94/143 93/93/142
f 68/68/117 94/94/143 66/66/115
f 68/68/117 95/95/144 94/94/143
f 70/70/119 95/95/144 68/68/117
f 70/70/119 96/96/145 95/95/144
f 72/72/121 96/96/145 70/70/119
f 72/72/121 81/81/130 96/96/145
f 97/97/146 98/98/147 99/99/148
f 97/97/146 100/100/146 98/98/147
f 101/101/146 100/100/146 97/97/146
f 101/101/146 102/102/146 100/100/146
f 103/103/146 102/102/146 101/101/146
f 103/103/146 104/104/146 102/102/146
f 105/105/146 104/104/146 103/103/146
f 105/105/146 106/106/149 104/104/146
f 107/107/146 106/106/149 105/105/146
f 107/107/146 108/108/146 106/106/149
f 109/109/146 108/108/146 107/107/146
f 109/109/146 110/110/146 108/108/146
f 111/111/146 110/110/146 109/109/146
f 111/111/146 112/112/146 110/110/146
f 113/113/148 112/112/146 111/111/146
f 113/113/148 114/114/148 112/112/146
f 115/115/146 114/114/148 113/113/148
f 115/115/146 116/116/146 114/114/148
f 117/117/146 116/116/146 115/115/146
f 117/117/146 118/118/146 116/116/146
f 119/119/146 118/118/146 117/117/146
f 119/119/146 120/120/146 118/118/146
f 121/121/146 120/120/146 119/119/146
f 121/121/146 122/122/146 120/120/146
f 123/123/146 122/122/146 121/121/146
f 123/123/146 124/124/146 122/122/146
f 125/125/148 124/124/146 123/123/146
f 125/125/148 126/126/148 124/124/146
f 127/127/148 126/126/148 125/125/148
f 127/127/148 128/128/148 126/126/148
f 99/99/148 128/128/148 127/127/148
f 99/99/148 98/98/147 128/128/148
f 129/129/150 130/130/151 131/131/152
f 129/129/150 132/132/153 130/130/151
f 133/133/153 132/132/153 129/129/150
f 133/133/153 134/134/154 132/132/153
f 135/135/154 134/134/154 133/133/153
f 135/135/154 136/136/155 134/134/154
f 137/137/156 138/138/157 139/139/158
f 137/137/156 140/140/159 138/138/157
f 141/141/159 140/140/159 137/137/156
f 141/141/159 136/136/155 140/140/159
f 142/142/160 136/136/155 141/141/159
f 142/142/160 134/134/154 136/136/155
f 131/131/152 143/143/161 129/129/150
f 131/131/152 139/139/158 143/143/161
f 144/144/162 139/139/158 131/131/152
f 144/144/162 137/137/156 139/139/158
f 145/145/147 44/44/93 45/45/94
f 145/145/147 43/43/92 44/44/93
f 42/42/91 43/43/92 145/145/147
f 145/145/147 41/41/90 42/42/91
f 145/145/147 40/40/89 41/41/90
f 39/39/88 40/40/89 145/145/147
f 145/145/147 38/38/87 39/39/88
f 145/145/147 37/37/86 38/38/87
f 36/36/85 37/37/86 145/145/147
f 145/145/147 35/35/84 36/36/85
f 145/145/147 34/34/83 35/35/84
f 33/33/82 34/34/83 145/145/147
f 145/145/147 48/48/97 33/33/82
f 145/145/147 47/47/96 48/48/97
f 46/46/95 47/47/96 145/145/147
f 146/146/163 85/85/134 86/86/135
f 146/146/163 84/84/133 85/85/134
f 83/83/132 84/84/133 146/146/163
f 87/87/136 146/146/163 86/86/135
f 87/87/136 88/88/137 146/146/163
f 89/89/138 146/146/163 88/88/137
f 89/89/138 90/90/139 146/146/163
f 91/91/140 146/146/163 90/90/139
f 91/91/140 92/92/141 146/146/163
f 93/93/142 146/146/163 92/92/141
f 93/93/142 94/94/143 146/146/163
f 95/95/144 146/146/163 94/94/143
f 95/95/144 96/96/145 146/146/163
f 81/81/130 146/146/163 96/96/145
f 81/81/130 82/82/131 146/146/163
f 45/45/94 46/46/95 145/145/147
f 146/146/163 82/82/131 83/83/132
