# Blender 3.5.1
# www.blender.org
mtllib restaurante.mtl
o muro2
v -35.000000 15.000002 -32.500000
v -35.000000 0.000001 -32.500000
v 35.000000 14.999998 -32.500000
v 35.000000 -0.000001 -32.500000
v 0.000000 15.000000 -32.500000
v 17.500000 -0.000001 -32.500000
v 17.500000 14.999999 -32.500000
v 26.250000 14.999999 -32.500000
v -35.000000 7.500001 -32.500000
v 35.000000 7.499999 -32.500000
v 17.500000 7.499999 -32.500000
v 26.250000 7.499999 -32.500000
v 21.875000 14.999999 -32.500000
v 21.875000 -0.000001 -32.500000
v 21.875000 7.499999 -32.500000
v 30.625000 -0.000001 -32.500000
v 30.625000 14.999998 -32.500000
v 30.625000 7.499999 -32.500000
v -10.092919 0.000000 -32.500000
v -10.075159 15.000000 -32.500000
v 4.929852 15.000000 -32.500000
v 5.040173 0.000000 -32.500000
v 4.985527 7.500000 -32.500000
v -5.037579 15.000000 -32.500000
v -3.778184 15.000000 -32.500000
v -3.781613 7.500000 -32.500000
v -1.260538 7.500000 -32.500000
v -1.259395 15.000000 -32.500000
v 4.929852 15.000000 -32.500000
v 0.000000 15.000000 -32.500000
v 0.000000 7.500000 -32.500000
v -1.260538 7.500000 -32.500000
v 4.985527 7.500000 -32.500000
v -1.259395 15.000000 -32.500000
v -10.084301 7.500000 -32.500000
v -5.042150 7.500000 -32.500000
v -10.092919 0.000000 -32.500000
v -10.084301 7.500000 -32.500000
v -10.075159 15.000000 -32.500000
v -5.037579 15.000000 -32.500000
v -10.075159 15.000000 -32.500000
v -5.037579 15.000000 -32.500000
vn -0.0000 -0.0000 1.0000
vt 0.000000 0.000000
vt 1.000000 0.000000
vt 0.000000 1.000000
vt 1.000000 1.000000
vt 0.000000 0.000000
vt 1.000000 0.750000
vt 0.000000 0.750000
vt 0.000000 0.875000
vt 0.500000 0.000000
vt 0.500000 1.000000
vt 0.500000 0.750000
vt 0.500000 0.875000
vt 0.000000 0.812500
vt 1.000000 0.812500
vt 0.500000 0.812500
vt 1.000000 0.937500
vt 0.000000 0.937500
vt 0.500000 0.937500
vt 1.000000 0.355815
vt 0.000000 0.356069
vt 0.000000 0.000000
vt 0.000000 0.570426
vt 1.000000 0.572002
vt 0.500000 0.571222
vt 0.000000 0.428035
vt 0.000000 0.446026
vt 0.500000 0.445977
vt 0.000000 0.000000
vt 0.000000 0.000000
vt 0.000000 0.000000
vt 0.000000 0.570426
vt 0.000000 0.000000
vt 0.000000 0.500000
vt 0.500000 0.500000
vt 0.500000 0.481992
vt 0.000000 0.000000
vt 0.500000 0.571222
vt 0.000000 0.482009
vt 0.000000 0.000000
vt 0.500000 0.355939
vt 0.500000 0.427969
vt 1.000000 0.355815
vt 0.500000 0.355939
vt 0.000000 0.356069
vt 0.000000 0.428035
vt 0.000000 0.356069
vt 0.000000 0.428035
s 0
f 18/18/1 16/16/1 4/4/1 10/10/1
f 9/9/1 2/2/1 19/19/1 35/40/1
f 13/13/1 15/15/1 12/12/1 8/8/1
f 21/21/1 5/5/1 30/32/1 29/30/1
f 1/1/1 9/9/1 35/40/1 20/20/1
f 17/17/1 18/18/1 10/10/1 3/3/1
f 7/7/1 11/11/1 15/15/1 13/13/1
f 11/11/1 6/6/1 14/14/1 15/15/1
f 8/8/1 12/12/1 18/18/1 17/17/1
f 20/20/1 35/40/1 36/41/1 24/25/1
f 5/5/1 28/29/1 34/39/1 30/32/1
f 23/24/1 22/23/1 6/6/1 11/11/1
f 21/22/1 23/24/1 11/11/1 7/7/1
f 24/25/1 36/41/1 26/27/1 25/26/1
f 30/33/1 31/34/1 33/37/1 29/31/1
f 34/38/1 32/35/1 31/34/1 30/33/1
f 28/29/1 27/28/1 32/36/1 34/39/1
f 23/24/1 21/22/1 29/31/1 33/37/1
f 35/40/1 19/19/1 37/42/1 38/43/1
f 20/20/1 24/25/1 40/45/1 39/44/1
f 39/44/1 40/45/1 42/47/1 41/46/1
o Plano.001
v 15.000000 0.000000 -32.500000
v 35.000000 0.000000 -32.500000
v 15.000000 0.000000 -47.500000
v 35.000000 0.000000 -47.500000
vn -0.0000 1.0000 -0.0000
vt 0.000000 0.000000
vt 1.000000 0.000000
vt 0.000000 1.000000
vt 1.000000 1.000000
s 0
f 43/48/2 44/49/2 46/51/2 45/50/2
o Plano.002
v 35.000000 15.000000 -32.500000
v 35.000000 0.000000 -32.500000
v 35.000000 15.000000 -47.500000
v 35.000000 0.000000 -47.500000
vn 1.0000 -0.0000 -0.0000
vt 0.000000 0.000000
vt 1.000000 0.000000
vt 0.000000 1.000000
vt 1.000000 1.000000
s 0
f 47/52/3 48/53/3 50/55/3 49/54/3
o Plano.003
v 15.000000 0.000000 -47.500000
v 35.000000 0.000000 -47.500000
v 15.000000 15.000000 -47.500000
v 35.000000 15.000000 -47.500000
vn -0.0000 -0.0000 1.0000
vt 0.000000 0.000000
vt 1.000000 0.000000
vt 0.000000 1.000000
vt 1.000000 1.000000
s 0
f 51/56/4 52/57/4 54/59/4 53/58/4
o Plano.004
v 15.000000 15.000000 -32.500000
v 15.000000 0.000000 -32.500000
v 15.000000 15.000000 -47.500000
v 15.000000 0.000000 -47.500000
vn 1.0000 -0.0000 -0.0000
vt 0.000000 0.000000
vt 1.000000 0.000000
vt 0.000000 1.000000
vt 1.000000 1.000000
s 0
f 55/60/5 56/61/5 58/63/5 57/62/5
o Plano.005
v -10.000000 0.000000 -32.500000
v 5.000000 0.000000 -32.500000
v -10.000000 0.000000 -47.500000
v 5.000000 0.000000 -47.500000
vn -0.0000 1.0000 -0.0000
vt 0.000000 0.000000
vt 1.000000 0.000000
vt 0.000000 1.000000
vt 1.000000 1.000000
s 0
f 59/64/6 60/65/6 62/67/6 61/66/6
o Plano.006
v 5.000000 15.000000 -32.500000
v 5.000000 0.000000 -32.500000
v 5.000000 15.000000 -47.500000
v 5.000000 0.000000 -47.500000
vn 1.0000 -0.0000 -0.0000
vt 0.000000 0.000000
vt 1.000000 0.000000
vt 0.000000 1.000000
vt 1.000000 1.000000
s 0
f 63/68/7 64/69/7 66/71/7 65/70/7
o Plano.007
v -10.000000 0.000000 -47.500000
v 5.000000 0.000000 -47.500000
v -10.000000 15.000000 -47.500000
v 5.000000 15.000000 -47.500000
vn -0.0000 -0.0000 1.0000
vt 0.000000 0.000000
vt 1.000000 0.000000
vt 0.000000 1.000000
vt 1.000000 1.000000
s 0
f 67/72/8 68/73/8 70/75/8 69/74/8
o Plano.008
v -10.000000 15.000000 -32.500000
v -10.000000 0.000000 -32.500000
v -10.000000 15.000000 -47.500000
v -10.000000 0.000000 -47.500000
vn 1.0000 -0.0000 -0.0000
vt 0.000000 0.000000
vt 1.000000 0.000000
vt 0.000000 1.000000
vt 1.000000 1.000000
s 0
f 71/76/9 72/77/9 74/79/9 73/78/9
o Plano.012
v -35.000000 0.000000 32.500000
v 35.000000 0.000000 32.500000
v -35.000000 0.000000 -32.500000
v 35.000000 0.000000 -32.500000
vn -0.0000 1.0000 -0.0000
vt 0.000000 0.000000
vt 1.000000 0.000000
vt 0.000000 1.000000
vt 1.000000 1.000000
s 0
f 75/80/10 76/81/10 78/83/10 77/82/10
o Plano.009
v -10.000000 0.000000 62.500000
v 30.000000 0.000000 62.500000
v -10.000000 0.000000 32.500000
v 30.000000 0.000000 32.500000
vn -0.0000 1.0000 -0.0000
vt 0.000000 0.000000
vt 1.000000 0.000000
vt 0.000000 1.000000
vt 1.000000 1.000000
s 0
f 79/84/11 80/85/11 82/87/11 81/86/11
o Plano.010
v -35.000000 0.000001 52.500000
v -10.000000 0.000001 52.500000
v -35.000000 0.000001 32.500000
v -10.000000 0.000001 32.500000
vn -0.0000 1.0000 -0.0000
vt 0.000000 0.000000
vt 1.000000 0.000000
vt 0.000000 1.000000
vt 1.000000 1.000000
s 0
f 83/88/12 84/89/12 86/91/12 85/90/12
o Plano.011
v -10.000000 15.000000 62.500000
v -10.000000 0.000000 62.500000
v -10.000000 15.000000 32.500000
v -10.000000 0.000000 32.500000
vn 1.0000 -0.0000 -0.0000
vt 0.000000 0.000000
vt 1.000000 0.000000
vt 0.000000 1.000000
vt 1.000000 1.000000
s 0
f 87/92/13 88/93/13 90/95/13 89/94/13
o Plano.013
v -10.000000 0.000000 62.500000
v -10.000000 15.000000 62.500000
v 9.995034 0.000000 62.500000
v 9.995034 15.000000 62.500000
vn -0.0000 -0.0000 1.0000
vt 0.000000 0.000000
vt 0.000000 1.000000
vt 0.499876 0.000000
vt 0.499876 1.000000
s 0
f 91/96/14 93/98/14 94/99/14 92/97/14
o Plano.014
v 30.000000 15.000000 62.500000
v 30.000000 0.000000 62.500000
v 30.000000 15.000000 32.500000
v 30.000000 0.000000 32.500000
vn 1.0000 -0.0000 -0.0000
vt 0.000000 0.000000
vt 1.000000 0.000000
vt 0.000000 1.000000
vt 1.000000 1.000000
s 0
f 95/100/15 96/101/15 98/103/15 97/102/15
o Plano.015
v -35.000000 15.000000 32.500000
v -35.000000 0.000000 32.500000
v -35.000000 15.000000 -32.500000
v -35.000000 0.000000 -32.500000
vn 1.0000 -0.0000 -0.0000
vt 0.000000 0.000000
vt 1.000000 0.000000
vt 0.000000 1.000000
vt 1.000000 1.000000
s 0
f 99/104/16 100/105/16 102/107/16 101/106/16
o Plano
v -35.000000 0.000000 32.500000
v 35.000000 0.000000 32.500000
v -35.000000 15.000000 32.500000
v 35.000000 15.000000 32.500000
v -35.000000 0.000000 32.500000
v 35.000000 0.000000 32.500000
v 0.000000 0.000000 32.500000
v 0.000000 15.000000 32.500000
v 0.000000 0.000000 32.500000
v -35.000000 7.500000 32.500000
v 35.000000 7.500000 32.500000
v 0.000000 7.500000 32.500000
v -9.997010 0.000000 32.500000
v -9.996766 0.000000 32.500000
v -9.949792 7.500000 32.500000
v -22.474897 7.500000 32.500000
v -22.498505 0.000000 32.500000
v -22.498383 0.000000 32.500000
v -16.247757 0.000000 32.500000
v -16.247574 0.000000 32.500000
v -16.212345 7.500000 32.500000
v -28.737448 7.500000 32.500000
v -28.749252 0.000000 32.500000
v -28.749191 0.000000 32.500000
v -19.343620 7.500000 32.500000
v -19.373131 0.000000 32.500000
v -19.372978 0.000000 32.500000
v -25.623878 0.000000 32.500000
v -25.623789 0.000000 32.500000
v -25.606173 7.500000 32.500000
vn -0.0000 -0.0000 1.0000
vt 0.000000 0.000000
vt 1.000000 0.000000
vt 0.000000 1.000000
vt 1.000000 1.000000
vt 0.000000 0.000000
vt 1.000000 0.000000
vt 0.500000 0.000000
vt 0.500000 1.000000
vt 0.500000 0.000000
vt 0.000000 0.500000
vt 1.000000 0.500000
vt 0.500000 0.500000
vt 0.357186 0.000000
vt 0.357189 0.000000
vt 0.357860 0.500000
vt 0.178930 0.500000
vt 0.178593 0.000000
vt 0.178595 0.000000
vt 0.267889 0.000000
vt 0.267892 0.000000
vt 0.268395 0.500000
vt 0.089465 0.500000
vt 0.089296 0.000000
vt 0.089296 0.000000
vt 0.223663 0.500000
vt 0.223241 0.000000
vt 0.223243 0.000000
vt 0.133945 0.000000
vt 0.133946 0.000000
vt 0.134198 0.500000
s 0
f 114/119/17 113/118/17 106/111/17 110/115/17
f 109/114/17 115/120/17 116/121/17 111/116/17
f 104/109/17 109/114/17 111/116/17 108/113/17
f 112/117/17 124/129/17 132/137/17 118/123/17 127/132/17 123/128/17 117/122/17 114/119/17 110/115/17 105/110/17
f 121/126/17 115/120/17 117/122/17 123/128/17
f 109/114/17 104/109/17 113/118/17 114/119/17
f 126/131/17 125/130/17 103/108/17 107/112/17
f 129/134/17 128/133/17 119/124/17 120/125/17
f 116/121/17 115/120/17 121/126/17 122/127/17
f 128/133/17 121/126/17 123/128/17 127/132/17
f 103/108/17 125/130/17 124/129/17 112/117/17
f 131/136/17 130/135/17 125/130/17 126/131/17
f 122/127/17 121/126/17 128/133/17 129/134/17
f 120/125/17 119/124/17 130/135/17 131/136/17
f 125/130/17 130/135/17 132/137/17 124/129/17
o Plano.016
v -35.000000 15.000000 52.500000
v -35.000000 0.000000 52.500000
v -35.000000 15.000000 32.500000
v -35.000000 0.000000 32.500000
vn 1.0000 -0.0000 -0.0000
vt 0.000000 0.000000
vt 1.000000 0.000000
vt 0.000000 1.000000
vt 1.000000 1.000000
s 0
f 133/138/18 134/139/18 136/141/18 135/140/18
o Plano.019
v -22.500000 15.000000 52.500000
v -22.500000 0.000000 52.500000
v -22.500000 15.000000 32.500000
v -22.500000 0.000000 32.500000
vn 1.0000 -0.0000 -0.0000
vt 0.000000 0.000000
vt 1.000000 0.000000
vt 0.000000 1.000000
vt 1.000000 1.000000
s 0
f 137/142/19 138/143/19 140/145/19 139/144/19
o Plano.018
v 10.000000 0.000000 77.500000
v 30.000000 0.000000 77.500000
v 10.000000 0.000000 62.500000
v 30.000000 0.000000 62.500000
vn -0.0000 1.0000 -0.0000
vt 0.000000 0.000000
vt 1.000000 0.000000
vt 0.000000 1.000000
vt 1.000000 1.000000
s 0
f 141/146/20 142/147/20 144/149/20 143/148/20
o Plano.020
v 10.000000 15.000000 77.500000
v 10.000000 0.000000 77.500000
v 10.000000 15.000000 62.500000
v 10.000000 0.000000 62.500000
vn 1.0000 -0.0000 -0.0000
vt 0.000000 0.000000
vt 1.000000 0.000000
vt 0.000000 1.000000
vt 1.000000 1.000000
s 0
f 145/150/21 146/151/21 148/153/21 147/152/21
o Plano.021
v 10.000000 0.000000 77.500000
v 30.000000 0.000000 77.500000
v 10.000000 15.000000 77.500000
v 30.000000 15.000000 77.500000
vn -0.0000 -0.0000 1.0000
vt 0.000000 0.000000
vt 1.000000 0.000000
vt 0.000000 1.000000
vt 1.000000 1.000000
s 0
f 149/154/22 150/155/22 152/157/22 151/156/22
o Plano.022
v 30.000000 15.000000 77.500000
v 30.000000 0.000000 77.500000
v 30.000000 15.000000 62.500000
v 30.000000 0.000000 62.500000
vn 1.0000 -0.0000 -0.0000
vt 0.000000 0.000000
vt 1.000000 0.000000
vt 0.000000 1.000000
vt 1.000000 1.000000
s 0
f 153/158/23 154/159/23 156/161/23 155/160/23
o Plano.023
v 35.000000 15.000000 32.500000
v 35.000000 0.000000 32.500000
v 35.000000 15.000000 -32.500000
v 35.000000 0.000000 -32.500000
v 35.000000 15.000000 0.000000
v 35.000000 7.500000 32.500000
v 35.000000 7.500000 -32.500000
v 35.000000 7.500000 0.000000
v 35.000000 0.000000 -16.250000
v 35.000000 15.000000 -16.250000
v 35.000000 7.500000 -16.250000
v 35.000000 15.000000 16.250000
v 35.000000 0.000000 16.250000
v 35.000000 7.500000 16.250000
v 35.000000 0.000000 8.125000
v 35.000000 7.500000 8.125000
v 35.000000 15.000000 8.125000
v 35.000000 15.000000 -8.125000
v 35.000000 0.000000 -8.125000
v 35.000000 7.500000 -8.125000
vn 1.0000 -0.0000 -0.0000
vt 0.000000 0.000000
vt 1.000000 0.000000
vt 0.000000 1.000000
vt 1.000000 1.000000
vt 0.000000 0.500000
vt 0.500000 0.000000
vt 0.500000 1.000000
vt 0.500000 0.500000
vt 1.000000 0.750000
vt 0.000000 0.750000
vt 0.500000 0.750000
vt 0.000000 0.250000
vt 1.000000 0.250000
vt 0.500000 0.250000
vt 1.000000 0.375000
vt 0.500000 0.375000
vt 0.000000 0.375000
vt 0.000000 0.625000
vt 1.000000 0.625000
vt 0.500000 0.625000
s 0
f 167/172/24 165/170/24 160/165/24 163/168/24
f 173/178/24 172/177/24 164/169/24 161/166/24
f 166/171/24 167/172/24 163/168/24 159/164/24
f 174/179/24 176/181/24 167/172/24 166/171/24
f 176/181/24 175/180/24 165/170/24 167/172/24
f 157/162/24 162/167/24 170/175/24 168/173/24
f 162/167/24 158/163/24 169/174/24 170/175/24
f 168/173/24 170/175/24 172/177/24 173/178/24
f 170/175/24 169/174/24 171/176/24 172/177/24
f 161/166/24 164/169/24 176/181/24 174/179/24
o Cubo
v -10.000000 0.000000 -22.500000
v -10.000000 5.000000 -22.500000
v -10.000000 0.000000 -47.500000
v -10.000000 5.000000 -47.500000
v 5.000000 0.000000 -22.500000
v 5.000000 5.000000 -22.500000
v 5.000000 0.000000 -47.500000
v 5.000000 5.000000 -47.500000
vn -1.0000 -0.0000 -0.0000
vn -0.0000 -0.0000 -1.0000
vn 1.0000 -0.0000 -0.0000
vn -0.0000 -0.0000 1.0000
vn -0.0000 -1.0000 -0.0000
vn -0.0000 1.0000 -0.0000
vt 0.375000 0.000000
vt 0.375000 1.000000
vt 0.125000 0.750000
vt 0.625000 0.000000
vt 0.625000 1.000000
vt 0.875000 0.750000
vt 0.375000 0.250000
vt 0.125000 0.500000
vt 0.625000 0.250000
vt 0.875000 0.500000
vt 0.375000 0.750000
vt 0.625000 0.750000
vt 0.375000 0.500000
vt 0.625000 0.500000
s 0
f 177/182/25 178/185/25 180/190/25 179/188/25
f 179/188/26 180/190/26 184/195/26 183/194/26
f 183/194/27 184/195/27 182/193/27 181/192/27
f 181/192/28 182/193/28 178/186/28 177/183/28
f 179/189/29 183/194/29 181/192/29 177/184/29
f 184/195/30 180/191/30 178/187/30 182/193/30
o Plano.024
v -28.750000 10.000000 52.500000
v -28.750000 0.000000 52.500000
v -28.750000 10.000000 32.500000
v -28.750000 0.000000 32.500000
vn 1.0000 -0.0000 -0.0000
vt 0.000000 0.000000
vt 1.000000 0.000000
vt 0.000000 1.000000
vt 1.000000 1.000000
s 0
f 185/196/31 186/197/31 188/199/31 187/198/31
o Plano.025
v -16.250000 10.000000 52.500000
v -16.250000 0.000000 52.500000
v -16.250000 10.000000 32.500000
v -16.250000 0.000000 32.500000
vn 1.0000 -0.0000 -0.0000
vt 0.000000 0.000000
vt 1.000000 0.000000
vt 0.000000 1.000000
vt 1.000000 1.000000
s 0
f 189/200/32 190/201/32 192/203/32 191/202/32
o Plano.017
v -35.000000 0.000000 52.500000
v -10.000000 0.000000 52.500000
v -35.000000 15.000000 52.500000
v -10.000000 15.000000 52.500000
vn -0.0000 -0.0000 1.0000
vt 0.000000 0.000000
vt 1.000000 0.000000
vt 0.000000 1.000000
vt 1.000000 1.000000
s 0
f 193/204/33 194/205/33 196/207/33 195/206/33
